<?xml version="1.0" encoding="utf-8"?>
<!-- Generator: Adobe Illustrator 16.0.0, SVG Export Plug-In . SVG Version: 6.00 Build 0)  -->
<!DOCTYPE svg PUBLIC "-//W3C//DTD SVG 1.1//EN" "http://www.w3.org/Graphics/SVG/1.1/DTD/svg11.dtd">
<svg version="1.1" id="Layer_1" xmlns="http://www.w3.org/2000/svg" xmlns:xlink="http://www.w3.org/1999/xlink" x="0px" y="0px"
	 width="32px" height="32px" viewBox="0 0 32 32" enable-background="new 0 0 32 32" xml:space="preserve">
<path fill="#AAAAAA" d="M0.5,16C0.5,7.438,7.438,0.5,16,0.5S31.5,7.438,31.5,16S24.563,31.5,16,31.5S0.5,24.563,0.5,16z
	 M9.475,17.807L14,13.087V24.5c0,0.831,0.669,1.5,1.5,1.5h1c0.831,0,1.5-0.669,1.5-1.5V13.087l4.525,4.719
	c0.581,0.605,1.55,0.618,2.144,0.024l0.681-0.688c0.588-0.587,0.588-1.537,0-2.119l-8.287-8.293c-0.587-0.588-1.538-0.588-2.119,0
	l-8.3,8.293c-0.587,0.587-0.587,1.538,0,2.119l0.682,0.688C7.925,18.425,8.894,18.412,9.475,17.807z"/>
</svg>
